# Tiled2Unity generated file. Do not modify by hand.
# Wavefront file for 'friends_bedroom_mesh_0002.obj'

# Vertices (Count = 144)
v -160 -80 0
v -176 -80 0
v -176 -64 0
v -160 -64 0
v -144 -80 0
v -160 -80 0
v -160 -64 0
v -144 -64 0
v -128 -80 0
v -144 -80 0
v -144 -64 0
v -128 -64 0
v -112 -80 0
v -128 -80 0
v -128 -64 0
v -112 -64 0
v -96 -80 0
v -112 -80 0
v -112 -64 0
v -96 -64 0
v -80 -80 0
v -96 -80 0
v -96 -64 0
v -80 -64 0
v -64 -80 0
v -80 -80 0
v -80 -64 0
v -64 -64 0
v -48 -80 0
v -64 -80 0
v -64 -64 0
v -48 -64 0
v -32 -80 0
v -48 -80 0
v -48 -64 0
v -32 -64 0
v -160 -96 0
v -176 -96 0
v -176 -80 0
v -160 -80 0
v -144 -96 0
v -160 -96 0
v -160 -80 0
v -144 -80 0
v -128 -96 0
v -144 -96 0
v -144 -80 0
v -128 -80 0
v -112 -96 0
v -128 -96 0
v -128 -80 0
v -112 -80 0
v -96 -96 0
v -112 -96 0
v -112 -80 0
v -96 -80 0
v -80 -96 0
v -96 -96 0
v -96 -80 0
v -80 -80 0
v -64 -96 0
v -80 -96 0
v -80 -80 0
v -64 -80 0
v -48 -96 0
v -64 -96 0
v -64 -80 0
v -48 -80 0
v -32 -96 0
v -48 -96 0
v -48 -80 0
v -32 -80 0
v -160 -112 0
v -176 -112 0
v -176 -96 0
v -160 -96 0
v -144 -112 0
v -160 -112 0
v -160 -96 0
v -144 -96 0
v -128 -112 0
v -144 -112 0
v -144 -96 0
v -128 -96 0
v -112 -112 0
v -128 -112 0
v -128 -96 0
v -112 -96 0
v -96 -112 0
v -112 -112 0
v -112 -96 0
v -96 -96 0
v -80 -112 0
v -96 -112 0
v -96 -96 0
v -80 -96 0
v -64 -112 0
v -80 -112 0
v -80 -96 0
v -64 -96 0
v -48 -112 0
v -64 -112 0
v -64 -96 0
v -48 -96 0
v -32 -112 0
v -48 -112 0
v -48 -96 0
v -32 -96 0
v -160 -128 0
v -176 -128 0
v -176 -112 0
v -160 -112 0
v -144 -128 0
v -160 -128 0
v -160 -112 0
v -144 -112 0
v -128 -128 0
v -144 -128 0
v -144 -112 0
v -128 -112 0
v -112 -128 0
v -128 -128 0
v -128 -112 0
v -112 -112 0
v -96 -128 0
v -112 -128 0
v -112 -112 0
v -96 -112 0
v -80 -128 0
v -96 -128 0
v -96 -112 0
v -80 -112 0
v -64 -128 0
v -80 -128 0
v -80 -112 0
v -64 -112 0
v -48 -128 0
v -64 -128 0
v -64 -112 0
v -48 -112 0
v -32 -128 0
v -48 -128 0
v -48 -112 0
v -32 -112 0

# Texture cooridinates (Count = 36)
vt 0.2107438 0.2585551
vt 0.2272727 0.2585551
vt 0.2272727 0.2889734
vt 0.2107438 0.2889734
vt 0.1931818 0.2585551
vt 0.2097107 0.2585551
vt 0.2097107 0.2889734
vt 0.1931818 0.2889734
vt 0.1756198 0.2585551
vt 0.1921488 0.2585551
vt 0.1921488 0.2889734
vt 0.1756198 0.2889734
vt 0.2107438 0.2262357
vt 0.2272727 0.2262357
vt 0.2272727 0.256654
vt 0.2107438 0.256654
vt 0.1931818 0.2262357
vt 0.2097107 0.2262357
vt 0.2097107 0.256654
vt 0.1931818 0.256654
vt 0.1756198 0.2262357
vt 0.1921488 0.2262357
vt 0.1921488 0.256654
vt 0.1756198 0.256654
vt 0.2107438 0.1939163
vt 0.2272727 0.1939163
vt 0.2272727 0.2243346
vt 0.2107438 0.2243346
vt 0.1931818 0.1939163
vt 0.2097107 0.1939163
vt 0.2097107 0.2243346
vt 0.1931818 0.2243346
vt 0.1756198 0.1939163
vt 0.1921488 0.1939163
vt 0.1921488 0.2243346
vt 0.1756198 0.2243346

# Normal
vn 0 0 -1

# Mesh description
g friends_bedroom_mesh_0002

# Faces
f 1/1/1 2/2/1 3/3/1 4/4/1
f 5/5/1 6/6/1 7/7/1 8/8/1
f 9/5/1 10/6/1 11/7/1 12/8/1
f 13/5/1 14/6/1 15/7/1 16/8/1
f 17/5/1 18/6/1 19/7/1 20/8/1
f 21/5/1 22/6/1 23/7/1 24/8/1
f 25/5/1 26/6/1 27/7/1 28/8/1
f 29/5/1 30/6/1 31/7/1 32/8/1
f 33/9/1 34/10/1 35/11/1 36/12/1
f 37/13/1 38/14/1 39/15/1 40/16/1
f 41/17/1 42/18/1 43/19/1 44/20/1
f 45/17/1 46/18/1 47/19/1 48/20/1
f 49/17/1 50/18/1 51/19/1 52/20/1
f 53/17/1 54/18/1 55/19/1 56/20/1
f 57/17/1 58/18/1 59/19/1 60/20/1
f 61/17/1 62/18/1 63/19/1 64/20/1
f 65/17/1 66/18/1 67/19/1 68/20/1
f 69/21/1 70/22/1 71/23/1 72/24/1
f 73/13/1 74/14/1 75/15/1 76/16/1
f 77/17/1 78/18/1 79/19/1 80/20/1
f 81/17/1 82/18/1 83/19/1 84/20/1
f 85/17/1 86/18/1 87/19/1 88/20/1
f 89/17/1 90/18/1 91/19/1 92/20/1
f 93/17/1 94/18/1 95/19/1 96/20/1
f 97/17/1 98/18/1 99/19/1 100/20/1
f 101/17/1 102/18/1 103/19/1 104/20/1
f 105/21/1 106/22/1 107/23/1 108/24/1
f 109/25/1 110/26/1 111/27/1 112/28/1
f 113/29/1 114/30/1 115/31/1 116/32/1
f 117/29/1 118/30/1 119/31/1 120/32/1
f 121/29/1 122/30/1 123/31/1 124/32/1
f 125/29/1 126/30/1 127/31/1 128/32/1
f 129/29/1 130/30/1 131/31/1 132/32/1
f 133/29/1 134/30/1 135/31/1 136/32/1
f 137/29/1 138/30/1 139/31/1 140/32/1
f 141/33/1 142/34/1 143/35/1 144/36/1

