# Tiled2Unity generated file. Do not modify by hand.
# Wavefront file for 'friends_bedroom_mesh_0005.obj'

# Vertices (Count = 24)
v -176 -80 0
v -192 -80 0
v -192 -64 0
v -176 -64 0
v -176 -96 0
v -192 -96 0
v -192 -80 0
v -176 -80 0
v -176 -112 0
v -192 -112 0
v -192 -96 0
v -176 -96 0
v -176 -144 0
v -192 -144 0
v -192 -128 0
v -176 -128 0
v -160 -144 0
v -176 -144 0
v -176 -128 0
v -160 -128 0
v -16 -144 0
v -32 -144 0
v -32 -128 0
v -16 -128 0

# Texture cooridinates (Count = 20)
vt 0.4082969 0.2229508
vt 0.4432314 0.2229508
vt 0.4432314 0.2754098
vt 0.4082969 0.2754098
vt 0.4082969 0.1672131
vt 0.4432314 0.1672131
vt 0.4432314 0.2196721
vt 0.4082969 0.2196721
vt 0.8908297 0.4459016
vt 0.9257642 0.4459016
vt 0.9257642 0.4983606
vt 0.8908297 0.4983606
vt 0.8537118 0.4459016
vt 0.8886463 0.4459016
vt 0.8886463 0.4983606
vt 0.8537118 0.4983606
vt 0.5938864 0.947541
vt 0.628821 0.947541
vt 0.628821 1
vt 0.5938864 1

# Normal
vn 0 0 -1

# Mesh description
g friends_bedroom_mesh_0005

# Faces
f 1/1/1 2/2/1 3/3/1 4/4/1
f 5/1/1 6/2/1 7/3/1 8/4/1
f 9/5/1 10/6/1 11/7/1 12/8/1
f 13/9/1 14/10/1 15/11/1 16/12/1
f 17/13/1 18/14/1 19/15/1 20/16/1
f 21/17/1 22/18/1 23/19/1 24/20/1

