# Tiled2Unity generated file. Do not modify by hand.
# Wavefront file for 'friends_bedroom_mesh_0003.obj'

# Vertices (Count = 32)
v -160 -32 0
v -176 -32 0
v -176 -16 0
v -160 -16 0
v -144 -32 0
v -160 -32 0
v -160 -16 0
v -144 -16 0
v -48 -32 0
v -64 -32 0
v -64 -16 0
v -48 -16 0
v -160 -48 0
v -176 -48 0
v -176 -32 0
v -160 -32 0
v -64 -48 0
v -80 -48 0
v -80 -32 0
v -64 -32 0
v -48 -48 0
v -64 -48 0
v -64 -32 0
v -48 -32 0
v -32 -48 0
v -48 -48 0
v -48 -32 0
v -32 -32 0
v -80 -128 0
v -96 -128 0
v -96 -112 0
v -80 -112 0

# Texture cooridinates (Count = 28)
vt 0.4390496 0.743346
vt 0.4555785 0.743346
vt 0.4555785 0.7737643
vt 0.4390496 0.7737643
vt 0.8078513 0.9372624
vt 0.8243802 0.9372624
vt 0.8243802 0.9676806
vt 0.8078513 0.9676806
vt 0.4390496 0.7110266
vt 0.4555785 0.7110266
vt 0.4555785 0.7414448
vt 0.4390496 0.7414448
vt 0.8780992 0.5817491
vt 0.8946281 0.5817491
vt 0.8946281 0.6121673
vt 0.8780992 0.6121673
vt 0.8254132 0.5817491
vt 0.8419421 0.5817491
vt 0.8419421 0.6121673
vt 0.8254132 0.6121673
vt 0.7902893 0.5817491
vt 0.8068182 0.5817491
vt 0.8068182 0.6121673
vt 0.7902893 0.6121673
vt 0.3336777 0.8079848
vt 0.3502066 0.8079848
vt 0.3502066 0.838403
vt 0.3336777 0.838403

# Normal
vn 0 0 -1

# Mesh description
g friends_bedroom_mesh_0003

# Faces
f 1/1/1 2/2/1 3/3/1 4/4/1
f 5/5/1 6/6/1 7/7/1 8/8/1
f 9/5/1 10/6/1 11/7/1 12/8/1
f 13/9/1 14/10/1 15/11/1 16/12/1
f 17/13/1 18/14/1 19/15/1 20/16/1
f 21/17/1 22/18/1 23/19/1 24/20/1
f 25/21/1 26/22/1 27/23/1 28/24/1
f 29/25/1 30/26/1 31/27/1 32/28/1

