# Tiled2Unity generated file. Do not modify by hand.
# Wavefront file for 'bathroom_mesh_0005.obj'

# Vertices (Count = 40)
v -80 -32 0
v -96 -32 0
v -96 -16 0
v -80 -16 0
v -64 -32 0
v -80 -32 0
v -80 -16 0
v -64 -16 0
v -48 -32 0
v -64 -32 0
v -64 -16 0
v -48 -16 0
v -32 -32 0
v -48 -32 0
v -48 -16 0
v -32 -16 0
v -16 -32 0
v -32 -32 0
v -32 -16 0
v -16 -16 0
v -80 -48 0
v -96 -48 0
v -96 -32 0
v -80 -32 0
v -48 -48 0
v -64 -48 0
v -64 -32 0
v -48 -32 0
v -80 -64 0
v -96 -64 0
v -96 -48 0
v -80 -48 0
v -48 -64 0
v -64 -64 0
v -64 -48 0
v -48 -48 0
v -144 -112 0
v -160 -112 0
v -160 -96 0
v -144 -96 0

# Texture cooridinates (Count = 16)
vt 0.5684713 0.5726316
vt 0.593949 0.5726316
vt 0.593949 0.6063158
vt 0.5684713 0.6063158
vt 0.2436306 0.5010526
vt 0.2691083 0.5010526
vt 0.2691083 0.5347369
vt 0.2436306 0.5347369
vt 0.1894905 0.5010526
vt 0.2149682 0.5010526
vt 0.2149682 0.5347369
vt 0.1894905 0.5347369
vt 0.4601911 0.5010526
vt 0.4856688 0.5010526
vt 0.4856688 0.5347369
vt 0.4601911 0.5347369

# Normal
vn 0 0 -1

# Mesh description
g bathroom_mesh_0005

# Faces
f 1/1/1 2/2/1 3/3/1 4/4/1
f 5/5/1 6/6/1 7/7/1 8/8/1
f 9/1/1 10/2/1 11/3/1 12/4/1
f 13/5/1 14/6/1 15/7/1 16/8/1
f 17/9/1 18/10/1 19/11/1 20/12/1
f 21/1/1 22/2/1 23/3/1 24/4/1
f 25/1/1 26/2/1 27/3/1 28/4/1
f 29/1/1 30/2/1 31/3/1 32/4/1
f 33/1/1 34/2/1 35/3/1 36/4/1
f 37/13/1 38/14/1 39/15/1 40/16/1

