# Tiled2Unity generated file. Do not modify by hand.
# Wavefront file for 'bathroom_mesh_0003.obj'

# Vertices (Count = 24)
v -48 -32 0
v -64 -32 0
v -64 -16 0
v -48 -16 0
v -16 -32 0
v -32 -32 0
v -32 -16 0
v -16 -16 0
v -48 -96 0
v -64 -96 0
v -64 -80 0
v -48 -80 0
v -16 -96 0
v -32 -96 0
v -32 -80 0
v -16 -80 0
v -64 -112 0
v -80 -112 0
v -80 -96 0
v -64 -96 0
v -32 -112 0
v -48 -112 0
v -48 -96 0
v -32 -96 0

# Texture cooridinates (Count = 12)
vt 0.9745223 0.6442105
vt 1 0.6442105
vt 1 0.6778947
vt 0.9745223 0.6778947
vt 0.5684713 0.2863158
vt 0.593949 0.2863158
vt 0.593949 0.32
vt 0.5684713 0.32
vt 0.5684713 0.2505263
vt 0.593949 0.2505263
vt 0.593949 0.2842105
vt 0.5684713 0.2842105

# Normal
vn 0 0 -1

# Mesh description
g bathroom_mesh_0003

# Faces
f 1/1/1 2/2/1 3/3/1 4/4/1
f 5/1/1 6/2/1 7/3/1 8/4/1
f 9/5/1 10/6/1 11/7/1 12/8/1
f 13/5/1 14/6/1 15/7/1 16/8/1
f 17/9/1 18/10/1 19/11/1 20/12/1
f 21/9/1 22/10/1 23/11/1 24/12/1

