# Tiled2Unity generated file. Do not modify by hand.
# Wavefront file for 'gym_mesh_0004.obj'

# Vertices (Count = 24)
v -16 -64 0
v -32 -64 0
v -32 -48 0
v -16 -48 0
v -32 -112 0
v -48 -112 0
v -48 -96 0
v -32 -96 0
v -16 -112 0
v -32 -112 0
v -32 -96 0
v -16 -96 0
v -144 -128 0
v -160 -128 0
v -160 -112 0
v -144 -112 0
v -32 -128 0
v -48 -128 0
v -48 -112 0
v -32 -112 0
v -16 -128 0
v -32 -128 0
v -32 -112 0
v -16 -112 0

# Texture cooridinates (Count = 24)
vt 0.3789809 0.4652631
vt 0.4044586 0.4652631
vt 0.4044586 0.4989474
vt 0.3789809 0.4989474
vt 0.1894905 0.4652631
vt 0.2149682 0.4652631
vt 0.2149682 0.4989474
vt 0.1894905 0.4989474
vt 0.1082803 0.4652631
vt 0.133758 0.4652631
vt 0.133758 0.4989474
vt 0.1082803 0.4989474
vt 0.4872611 0.5010526
vt 0.5127388 0.5010526
vt 0.5127388 0.5347369
vt 0.4872611 0.5347369
vt 0.1894905 0.4294737
vt 0.2149682 0.4294737
vt 0.2149682 0.4631579
vt 0.1894905 0.4631579
vt 0.1082803 0.4294737
vt 0.133758 0.4294737
vt 0.133758 0.4631579
vt 0.1082803 0.4631579

# Normal
vn 0 0 -1

# Mesh description
g gym_mesh_0004

# Faces
f 1/1/1 2/2/1 3/3/1 4/4/1
f 5/5/1 6/6/1 7/7/1 8/8/1
f 9/9/1 10/10/1 11/11/1 12/12/1
f 13/13/1 14/14/1 15/15/1 16/16/1
f 17/17/1 18/18/1 19/19/1 20/20/1
f 21/21/1 22/22/1 23/23/1 24/24/1

