# Tiled2Unity generated file. Do not modify by hand.
# Wavefront file for 'gym_mesh_0005.obj'

# Vertices (Count = 16)
v -112 -80 0
v -128 -80 0
v -128 -64 0
v -112 -64 0
v -96 -80 0
v -112 -80 0
v -112 -64 0
v -96 -64 0
v -64 -80 0
v -80 -80 0
v -80 -64 0
v -64 -64 0
v -48 -80 0
v -64 -80 0
v -64 -64 0
v -48 -64 0

# Texture cooridinates (Count = 6)
vt 0.4705882 0
vt 0.9411765 0
vt 0.9411765 1
vt 0.4705882 1
vt 0 0
vt 0 1

# Normal
vn 0 0 -1

# Mesh description
g gym_mesh_0005

# Faces
f 1/1/1 2/2/1 3/3/1 4/4/1
f 5/5/1 6/1/1 7/4/1 8/6/1
f 9/1/1 10/2/1 11/3/1 12/4/1
f 13/5/1 14/1/1 15/4/1 16/6/1

