# Tiled2Unity generated file. Do not modify by hand.
# Wavefront file for 'main_bedroom_mesh_0003.obj'

# Vertices (Count = 52)
v -48 -32 0
v -64 -32 0
v -64 -16 0
v -48 -16 0
v -32 -32 0
v -48 -32 0
v -48 -16 0
v -32 -16 0
v -16 -64 0
v -32 -64 0
v -32 -48 0
v -16 -48 0
v -176 -80 0
v -192 -80 0
v -192 -64 0
v -176 -64 0
v -176 -96 0
v -192 -96 0
v -192 -80 0
v -176 -80 0
v -160 -128 0
v -176 -128 0
v -176 -112 0
v -160 -112 0
v -32 -128 0
v -48 -128 0
v -48 -112 0
v -32 -112 0
v -16 -128 0
v -32 -128 0
v -32 -112 0
v -16 -112 0
v -176 -144 0
v -192 -144 0
v -192 -128 0
v -176 -128 0
v -160 -144 0
v -176 -144 0
v -176 -128 0
v -160 -128 0
v -144 -144 0
v -160 -144 0
v -160 -128 0
v -144 -128 0
v -32 -144 0
v -48 -144 0
v -48 -128 0
v -32 -128 0
v -16 -144 0
v -32 -144 0
v -32 -128 0
v -16 -128 0

# Texture cooridinates (Count = 52)
vt 0.779476 0.2786885
vt 0.8144105 0.2786885
vt 0.8144105 0.3311476
vt 0.779476 0.3311476
vt 0.7423581 0.2786885
vt 0.7772925 0.2786885
vt 0.7772925 0.3311476
vt 0.7423581 0.3311476
vt 0.5938864 0.947541
vt 0.628821 0.947541
vt 0.628821 1
vt 0.5938864 1
vt 0.9650655 0.5016394
vt 1 0.5016394
vt 1 0.5540984
vt 0.9650655 0.5540984
vt 0.9650655 0.4459016
vt 1 0.4459016
vt 1 0.4983606
vt 0.9650655 0.4983606
vt 0 0.7803279
vt 0.0349345 0.7803279
vt 0.0349345 0.8327869
vt 0 0.8327869
vt 0.4454148 0.947541
vt 0.4803493 0.947541
vt 0.4803493 1
vt 0.4454148 1
vt 0.4825327 0.8360656
vt 0.5174673 0.8360656
vt 0.5174673 0.8885246
vt 0.4825327 0.8885246
vt 0.0742358 0.947541
vt 0.1091703 0.947541
vt 0.1091703 1
vt 0.0742358 1
vt 0.0371179 0.947541
vt 0.0720524 0.947541
vt 0.0720524 1
vt 0.0371179 1
vt 0 0.947541
vt 0.0349345 0.947541
vt 0.0349345 1
vt 0 1
vt 0.4454148 0.8918033
vt 0.4803493 0.8918033
vt 0.4803493 0.9442623
vt 0.4454148 0.9442623
vt 0.4825327 0.7803279
vt 0.5174673 0.7803279
vt 0.5174673 0.8327869
vt 0.4825327 0.8327869

# Normal
vn 0 0 -1

# Mesh description
g main_bedroom_mesh_0003

# Faces
f 1/1/1 2/2/1 3/3/1 4/4/1
f 5/5/1 6/6/1 7/7/1 8/8/1
f 9/9/1 10/10/1 11/11/1 12/12/1
f 13/13/1 14/14/1 15/15/1 16/16/1
f 17/17/1 18/18/1 19/19/1 20/20/1
f 21/21/1 22/22/1 23/23/1 24/24/1
f 25/25/1 26/26/1 27/27/1 28/28/1
f 29/29/1 30/30/1 31/31/1 32/32/1
f 33/33/1 34/34/1 35/35/1 36/36/1
f 37/37/1 38/38/1 39/39/1 40/40/1
f 41/41/1 42/42/1 43/43/1 44/44/1
f 45/45/1 46/46/1 47/47/1 48/48/1
f 49/49/1 50/50/1 51/51/1 52/52/1

