# Tiled2Unity generated file. Do not modify by hand.
# Wavefront file for 'outdoors_mesh_0012.obj'

# Vertices (Count = 52)
v -592 -272 0
v -608 -272 0
v -608 -256 0
v -592 -256 0
v -576 -272 0
v -592 -272 0
v -592 -256 0
v -576 -256 0
v -560 -272 0
v -576 -272 0
v -576 -256 0
v -560 -256 0
v -480 -272 0
v -496 -272 0
v -496 -256 0
v -480 -256 0
v -464 -272 0
v -480 -272 0
v -480 -256 0
v -464 -256 0
v -448 -272 0
v -464 -272 0
v -464 -256 0
v -448 -256 0
v -592 -288 0
v -608 -288 0
v -608 -272 0
v -592 -272 0
v -576 -288 0
v -592 -288 0
v -592 -272 0
v -576 -272 0
v -560 -288 0
v -576 -288 0
v -576 -272 0
v -560 -272 0
v -480 -288 0
v -496 -288 0
v -496 -272 0
v -480 -272 0
v -464 -288 0
v -480 -288 0
v -480 -272 0
v -464 -272 0
v -448 -288 0
v -464 -288 0
v -464 -272 0
v -448 -272 0
v -528 -544 0
v -544 -544 0
v -544 -528 0
v -528 -528 0

# Texture cooridinates (Count = 20)
vt 0.8933121 0.6084211
vt 0.9187898 0.6084211
vt 0.9187898 0.6421052
vt 0.8933121 0.6421052
vt 0.8391719 0.6084211
vt 0.8646497 0.6084211
vt 0.8646497 0.6421052
vt 0.8391719 0.6421052
vt 0.8933121 0.5726316
vt 0.9187898 0.5726316
vt 0.9187898 0.6063158
vt 0.8933121 0.6063158
vt 0.8391719 0.5726316
vt 0.8646497 0.5726316
vt 0.8646497 0.6063158
vt 0.8391719 0.6063158
vt 0.9474522 0.8947368
vt 0.97293 0.8947368
vt 0.97293 0.928421
vt 0.9474522 0.928421

# Normal
vn 0 0 -1

# Mesh description
g outdoors_mesh_0012

# Faces
f 1/1/1 2/2/1 3/3/1 4/4/1
f 5/5/1 6/6/1 7/7/1 8/8/1
f 9/1/1 10/2/1 11/3/1 12/4/1
f 13/1/1 14/2/1 15/3/1 16/4/1
f 17/5/1 18/6/1 19/7/1 20/8/1
f 21/1/1 22/2/1 23/3/1 24/4/1
f 25/9/1 26/10/1 27/11/1 28/12/1
f 29/13/1 30/14/1 31/15/1 32/16/1
f 33/9/1 34/10/1 35/11/1 36/12/1
f 37/9/1 38/10/1 39/11/1 40/12/1
f 41/13/1 42/14/1 43/15/1 44/16/1
f 45/9/1 46/10/1 47/11/1 48/12/1
f 49/17/1 50/18/1 51/19/1 52/20/1

