# Tiled2Unity generated file. Do not modify by hand.
# Wavefront file for 'outdoors_mesh_0005.obj'

# Vertices (Count = 464)
v -752 -608 0
v -768 -608 0
v -768 -592 0
v -752 -592 0
v -736 -608 0
v -752 -608 0
v -752 -592 0
v -736 -592 0
v -720 -608 0
v -736 -608 0
v -736 -592 0
v -720 -592 0
v -704 -608 0
v -720 -608 0
v -720 -592 0
v -704 -592 0
v -688 -608 0
v -704 -608 0
v -704 -592 0
v -688 -592 0
v -672 -608 0
v -688 -608 0
v -688 -592 0
v -672 -592 0
v -656 -608 0
v -672 -608 0
v -672 -592 0
v -656 -592 0
v -640 -608 0
v -656 -608 0
v -656 -592 0
v -640 -592 0
v -624 -608 0
v -640 -608 0
v -640 -592 0
v -624 -592 0
v -608 -608 0
v -624 -608 0
v -624 -592 0
v -608 -592 0
v -592 -608 0
v -608 -608 0
v -608 -592 0
v -592 -592 0
v -576 -608 0
v -592 -608 0
v -592 -592 0
v -576 -592 0
v -480 -608 0
v -496 -608 0
v -496 -592 0
v -480 -592 0
v -464 -608 0
v -480 -608 0
v -480 -592 0
v -464 -592 0
v -448 -608 0
v -464 -608 0
v -464 -592 0
v -448 -592 0
v -432 -608 0
v -448 -608 0
v -448 -592 0
v -432 -592 0
v -416 -608 0
v -432 -608 0
v -432 -592 0
v -416 -592 0
v -400 -608 0
v -416 -608 0
v -416 -592 0
v -400 -592 0
v -384 -608 0
v -400 -608 0
v -400 -592 0
v -384 -592 0
v -368 -608 0
v -384 -608 0
v -384 -592 0
v -368 -592 0
v -352 -608 0
v -368 -608 0
v -368 -592 0
v -352 -592 0
v -336 -608 0
v -352 -608 0
v -352 -592 0
v -336 -592 0
v -320 -608 0
v -336 -608 0
v -336 -592 0
v -320 -592 0
v -752 -624 0
v -768 -624 0
v -768 -608 0
v -752 -608 0
v -736 -624 0
v -752 -624 0
v -752 -608 0
v -736 -608 0
v -720 -624 0
v -736 -624 0
v -736 -608 0
v -720 -608 0
v -704 -624 0
v -720 -624 0
v -720 -608 0
v -704 -608 0
v -688 -624 0
v -704 -624 0
v -704 -608 0
v -688 -608 0
v -672 -624 0
v -688 -624 0
v -688 -608 0
v -672 -608 0
v -656 -624 0
v -672 -624 0
v -672 -608 0
v -656 -608 0
v -640 -624 0
v -656 -624 0
v -656 -608 0
v -640 -608 0
v -624 -624 0
v -640 -624 0
v -640 -608 0
v -624 -608 0
v -608 -624 0
v -624 -624 0
v -624 -608 0
v -608 -608 0
v -592 -624 0
v -608 -624 0
v -608 -608 0
v -592 -608 0
v -576 -624 0
v -592 -624 0
v -592 -608 0
v -576 -608 0
v -480 -624 0
v -496 -624 0
v -496 -608 0
v -480 -608 0
v -464 -624 0
v -480 -624 0
v -480 -608 0
v -464 -608 0
v -448 -624 0
v -464 -624 0
v -464 -608 0
v -448 -608 0
v -432 -624 0
v -448 -624 0
v -448 -608 0
v -432 -608 0
v -416 -624 0
v -432 -624 0
v -432 -608 0
v -416 -608 0
v -400 -624 0
v -416 -624 0
v -416 -608 0
v -400 -608 0
v -384 -624 0
v -400 -624 0
v -400 -608 0
v -384 -608 0
v -368 -624 0
v -384 -624 0
v -384 -608 0
v -368 -608 0
v -352 -624 0
v -368 -624 0
v -368 -608 0
v -352 -608 0
v -336 -624 0
v -352 -624 0
v -352 -608 0
v -336 -608 0
v -320 -624 0
v -336 -624 0
v -336 -608 0
v -320 -608 0
v -752 -640 0
v -768 -640 0
v -768 -624 0
v -752 -624 0
v -736 -640 0
v -752 -640 0
v -752 -624 0
v -736 -624 0
v -720 -640 0
v -736 -640 0
v -736 -624 0
v -720 -624 0
v -704 -640 0
v -720 -640 0
v -720 -624 0
v -704 -624 0
v -688 -640 0
v -704 -640 0
v -704 -624 0
v -688 -624 0
v -672 -640 0
v -688 -640 0
v -688 -624 0
v -672 -624 0
v -656 -640 0
v -672 -640 0
v -672 -624 0
v -656 -624 0
v -640 -640 0
v -656 -640 0
v -656 -624 0
v -640 -624 0
v -624 -640 0
v -640 -640 0
v -640 -624 0
v -624 -624 0
v -608 -640 0
v -624 -640 0
v -624 -624 0
v -608 -624 0
v -592 -640 0
v -608 -640 0
v -608 -624 0
v -592 -624 0
v -576 -640 0
v -592 -640 0
v -592 -624 0
v -576 -624 0
v -480 -640 0
v -496 -640 0
v -496 -624 0
v -480 -624 0
v -464 -640 0
v -480 -640 0
v -480 -624 0
v -464 -624 0
v -448 -640 0
v -464 -640 0
v -464 -624 0
v -448 -624 0
v -432 -640 0
v -448 -640 0
v -448 -624 0
v -432 -624 0
v -416 -640 0
v -432 -640 0
v -432 -624 0
v -416 -624 0
v -400 -640 0
v -416 -640 0
v -416 -624 0
v -400 -624 0
v -384 -640 0
v -400 -640 0
v -400 -624 0
v -384 -624 0
v -368 -640 0
v -384 -640 0
v -384 -624 0
v -368 -624 0
v -352 -640 0
v -368 -640 0
v -368 -624 0
v -352 -624 0
v -336 -640 0
v -352 -640 0
v -352 -624 0
v -336 -624 0
v -320 -640 0
v -336 -640 0
v -336 -624 0
v -320 -624 0
v -752 -656 0
v -768 -656 0
v -768 -640 0
v -752 -640 0
v -736 -656 0
v -752 -656 0
v -752 -640 0
v -736 -640 0
v -720 -656 0
v -736 -656 0
v -736 -640 0
v -720 -640 0
v -704 -656 0
v -720 -656 0
v -720 -640 0
v -704 -640 0
v -688 -656 0
v -704 -656 0
v -704 -640 0
v -688 -640 0
v -672 -656 0
v -688 -656 0
v -688 -640 0
v -672 -640 0
v -656 -656 0
v -672 -656 0
v -672 -640 0
v -656 -640 0
v -640 -656 0
v -656 -656 0
v -656 -640 0
v -640 -640 0
v -624 -656 0
v -640 -656 0
v -640 -640 0
v -624 -640 0
v -608 -656 0
v -624 -656 0
v -624 -640 0
v -608 -640 0
v -592 -656 0
v -608 -656 0
v -608 -640 0
v -592 -640 0
v -576 -656 0
v -592 -656 0
v -592 -640 0
v -576 -640 0
v -480 -656 0
v -496 -656 0
v -496 -640 0
v -480 -640 0
v -464 -656 0
v -480 -656 0
v -480 -640 0
v -464 -640 0
v -448 -656 0
v -464 -656 0
v -464 -640 0
v -448 -640 0
v -432 -656 0
v -448 -656 0
v -448 -640 0
v -432 -640 0
v -416 -656 0
v -432 -656 0
v -432 -640 0
v -416 -640 0
v -400 -656 0
v -416 -656 0
v -416 -640 0
v -400 -640 0
v -384 -656 0
v -400 -656 0
v -400 -640 0
v -384 -640 0
v -368 -656 0
v -384 -656 0
v -384 -640 0
v -368 -640 0
v -352 -656 0
v -368 -656 0
v -368 -640 0
v -352 -640 0
v -336 -656 0
v -352 -656 0
v -352 -640 0
v -336 -640 0
v -320 -656 0
v -336 -656 0
v -336 -640 0
v -320 -640 0
v -752 -672 0
v -768 -672 0
v -768 -656 0
v -752 -656 0
v -736 -672 0
v -752 -672 0
v -752 -656 0
v -736 -656 0
v -720 -672 0
v -736 -672 0
v -736 -656 0
v -720 -656 0
v -704 -672 0
v -720 -672 0
v -720 -656 0
v -704 -656 0
v -688 -672 0
v -704 -672 0
v -704 -656 0
v -688 -656 0
v -672 -672 0
v -688 -672 0
v -688 -656 0
v -672 -656 0
v -656 -672 0
v -672 -672 0
v -672 -656 0
v -656 -656 0
v -640 -672 0
v -656 -672 0
v -656 -656 0
v -640 -656 0
v -624 -672 0
v -640 -672 0
v -640 -656 0
v -624 -656 0
v -608 -672 0
v -624 -672 0
v -624 -656 0
v -608 -656 0
v -592 -672 0
v -608 -672 0
v -608 -656 0
v -592 -656 0
v -576 -672 0
v -592 -672 0
v -592 -656 0
v -576 -656 0
v -480 -672 0
v -496 -672 0
v -496 -656 0
v -480 -656 0
v -464 -672 0
v -480 -672 0
v -480 -656 0
v -464 -656 0
v -448 -672 0
v -464 -672 0
v -464 -656 0
v -448 -656 0
v -432 -672 0
v -448 -672 0
v -448 -656 0
v -432 -656 0
v -416 -672 0
v -432 -672 0
v -432 -656 0
v -416 -656 0
v -400 -672 0
v -416 -672 0
v -416 -656 0
v -400 -656 0
v -384 -672 0
v -400 -672 0
v -400 -656 0
v -384 -656 0
v -368 -672 0
v -384 -672 0
v -384 -656 0
v -368 -656 0
v -352 -672 0
v -368 -672 0
v -368 -656 0
v -352 -656 0
v -336 -672 0
v -352 -672 0
v -352 -656 0
v -336 -656 0
v -320 -672 0
v -336 -672 0
v -336 -656 0
v -320 -656 0
v -400 -688 0
v -416 -688 0
v -416 -672 0
v -400 -672 0

# Texture cooridinates (Count = 100)
vt 0.4566116 0.161597
vt 0.4731405 0.161597
vt 0.4731405 0.1920152
vt 0.4566116 0.1920152
vt 0.4390496 0.161597
vt 0.4555785 0.161597
vt 0.4555785 0.1920152
vt 0.4390496 0.1920152
vt 0.4214876 0.161597
vt 0.4380165 0.161597
vt 0.4380165 0.1920152
vt 0.4214876 0.1920152
vt 0.4566116 0.09695816
vt 0.4731405 0.09695816
vt 0.4731405 0.1273764
vt 0.4566116 0.1273764
vt 0.4390496 0.09695816
vt 0.4555785 0.09695816
vt 0.4555785 0.1273764
vt 0.4390496 0.1273764
vt 0.4214876 0.09695816
vt 0.4380165 0.09695816
vt 0.4380165 0.1273764
vt 0.4214876 0.1273764
vt 0.4566116 0.2908745
vt 0.4731405 0.2908745
vt 0.4731405 0.3212928
vt 0.4566116 0.3212928
vt 0.4390496 0.2908745
vt 0.4555785 0.2908745
vt 0.4555785 0.3212928
vt 0.4390496 0.3212928
vt 0.4214876 0.2908745
vt 0.4380165 0.2908745
vt 0.4380165 0.3212928
vt 0.4214876 0.3212928
vt 0.3336777 0.2908745
vt 0.3502066 0.2908745
vt 0.3502066 0.3212928
vt 0.3336777 0.3212928
vt 0.3161157 0.2908745
vt 0.3326446 0.2908745
vt 0.3326446 0.3212928
vt 0.3161157 0.3212928
vt 0.2985537 0.2908745
vt 0.3150826 0.2908745
vt 0.3150826 0.3212928
vt 0.2985537 0.3212928
vt 0.4566116 0.2585551
vt 0.4731405 0.2585551
vt 0.4731405 0.2889734
vt 0.4566116 0.2889734
vt 0.4390496 0.2585551
vt 0.4555785 0.2585551
vt 0.4555785 0.2889734
vt 0.4390496 0.2889734
vt 0.4214876 0.2585551
vt 0.4380165 0.2585551
vt 0.4380165 0.2889734
vt 0.4214876 0.2889734
vt 0.3336777 0.2585551
vt 0.3502066 0.2585551
vt 0.3502066 0.2889734
vt 0.3336777 0.2889734
vt 0.3161157 0.2585551
vt 0.3326446 0.2585551
vt 0.3326446 0.2889734
vt 0.3161157 0.2889734
vt 0.2985537 0.2585551
vt 0.3150826 0.2585551
vt 0.3150826 0.2889734
vt 0.2985537 0.2889734
vt 0.4566116 0.2262357
vt 0.4731405 0.2262357
vt 0.4731405 0.256654
vt 0.4566116 0.256654
vt 0.4390496 0.2262357
vt 0.4555785 0.2262357
vt 0.4555785 0.256654
vt 0.4390496 0.256654
vt 0.4214876 0.2262357
vt 0.4380165 0.2262357
vt 0.4380165 0.256654
vt 0.4214876 0.256654
vt 0.3336777 0.2262357
vt 0.3502066 0.2262357
vt 0.3502066 0.256654
vt 0.3336777 0.256654
vt 0.3161157 0.2262357
vt 0.3326446 0.2262357
vt 0.3326446 0.256654
vt 0.3161157 0.256654
vt 0.2985537 0.2262357
vt 0.3150826 0.2262357
vt 0.3150826 0.256654
vt 0.2985537 0.256654
vt 0.2809917 0.4201521
vt 0.2975207 0.4201521
vt 0.2975207 0.4505703
vt 0.2809917 0.4505703

# Normal
vn 0 0 -1

# Mesh description
g outdoors_mesh_0005

# Faces
f 1/1/1 2/2/1 3/3/1 4/4/1
f 5/5/1 6/6/1 7/7/1 8/8/1
f 9/5/1 10/6/1 11/7/1 12/8/1
f 13/5/1 14/6/1 15/7/1 16/8/1
f 17/5/1 18/6/1 19/7/1 20/8/1
f 21/5/1 22/6/1 23/7/1 24/8/1
f 25/5/1 26/6/1 27/7/1 28/8/1
f 29/5/1 30/6/1 31/7/1 32/8/1
f 33/5/1 34/6/1 35/7/1 36/8/1
f 37/5/1 38/6/1 39/7/1 40/8/1
f 41/5/1 42/6/1 43/7/1 44/8/1
f 45/9/1 46/10/1 47/11/1 48/12/1
f 49/13/1 50/14/1 51/15/1 52/16/1
f 53/17/1 54/18/1 55/19/1 56/20/1
f 57/17/1 58/18/1 59/19/1 60/20/1
f 61/17/1 62/18/1 63/19/1 64/20/1
f 65/17/1 66/18/1 67/19/1 68/20/1
f 69/17/1 70/18/1 71/19/1 72/20/1
f 73/17/1 74/18/1 75/19/1 76/20/1
f 77/17/1 78/18/1 79/19/1 80/20/1
f 81/17/1 82/18/1 83/19/1 84/20/1
f 85/17/1 86/18/1 87/19/1 88/20/1
f 89/21/1 90/22/1 91/23/1 92/24/1
f 93/25/1 94/26/1 95/27/1 96/28/1
f 97/29/1 98/30/1 99/31/1 100/32/1
f 101/29/1 102/30/1 103/31/1 104/32/1
f 105/29/1 106/30/1 107/31/1 108/32/1
f 109/29/1 110/30/1 111/31/1 112/32/1
f 113/29/1 114/30/1 115/31/1 116/32/1
f 117/29/1 118/30/1 119/31/1 120/32/1
f 121/29/1 122/30/1 123/31/1 124/32/1
f 125/29/1 126/30/1 127/31/1 128/32/1
f 129/29/1 130/30/1 131/31/1 132/32/1
f 133/29/1 134/30/1 135/31/1 136/32/1
f 137/33/1 138/34/1 139/35/1 140/36/1
f 141/37/1 142/38/1 143/39/1 144/40/1
f 145/41/1 146/42/1 147/43/1 148/44/1
f 149/41/1 150/42/1 151/43/1 152/44/1
f 153/41/1 154/42/1 155/43/1 156/44/1
f 157/41/1 158/42/1 159/43/1 160/44/1
f 161/41/1 162/42/1 163/43/1 164/44/1
f 165/41/1 166/42/1 167/43/1 168/44/1
f 169/41/1 170/42/1 171/43/1 172/44/1
f 173/41/1 174/42/1 175/43/1 176/44/1
f 177/41/1 178/42/1 179/43/1 180/44/1
f 181/45/1 182/46/1 183/47/1 184/48/1
f 185/49/1 186/50/1 187/51/1 188/52/1
f 189/53/1 190/54/1 191/55/1 192/56/1
f 193/53/1 194/54/1 195/55/1 196/56/1
f 197/53/1 198/54/1 199/55/1 200/56/1
f 201/53/1 202/54/1 203/55/1 204/56/1
f 205/53/1 206/54/1 207/55/1 208/56/1
f 209/53/1 210/54/1 211/55/1 212/56/1
f 213/53/1 214/54/1 215/55/1 216/56/1
f 217/53/1 218/54/1 219/55/1 220/56/1
f 221/53/1 222/54/1 223/55/1 224/56/1
f 225/53/1 226/54/1 227/55/1 228/56/1
f 229/57/1 230/58/1 231/59/1 232/60/1
f 233/61/1 234/62/1 235/63/1 236/64/1
f 237/65/1 238/66/1 239/67/1 240/68/1
f 241/65/1 242/66/1 243/67/1 244/68/1
f 245/65/1 246/66/1 247/67/1 248/68/1
f 249/65/1 250/66/1 251/67/1 252/68/1
f 253/65/1 254/66/1 255/67/1 256/68/1
f 257/65/1 258/66/1 259/67/1 260/68/1
f 261/65/1 262/66/1 263/67/1 264/68/1
f 265/65/1 266/66/1 267/67/1 268/68/1
f 269/65/1 270/66/1 271/67/1 272/68/1
f 273/69/1 274/70/1 275/71/1 276/72/1
f 277/49/1 278/50/1 279/51/1 280/52/1
f 281/53/1 282/54/1 283/55/1 284/56/1
f 285/53/1 286/54/1 287/55/1 288/56/1
f 289/53/1 290/54/1 291/55/1 292/56/1
f 293/53/1 294/54/1 295/55/1 296/56/1
f 297/53/1 298/54/1 299/55/1 300/56/1
f 301/53/1 302/54/1 303/55/1 304/56/1
f 305/53/1 306/54/1 307/55/1 308/56/1
f 309/53/1 310/54/1 311/55/1 312/56/1
f 313/53/1 314/54/1 315/55/1 316/56/1
f 317/53/1 318/54/1 319/55/1 320/56/1
f 321/57/1 322/58/1 323/59/1 324/60/1
f 325/61/1 326/62/1 327/63/1 328/64/1
f 329/65/1 330/66/1 331/67/1 332/68/1
f 333/65/1 334/66/1 335/67/1 336/68/1
f 337/65/1 338/66/1 339/67/1 340/68/1
f 341/65/1 342/66/1 343/67/1 344/68/1
f 345/65/1 346/66/1 347/67/1 348/68/1
f 349/65/1 350/66/1 351/67/1 352/68/1
f 353/65/1 354/66/1 355/67/1 356/68/1
f 357/65/1 358/66/1 359/67/1 360/68/1
f 361/65/1 362/66/1 363/67/1 364/68/1
f 365/69/1 366/70/1 367/71/1 368/72/1
f 369/73/1 370/74/1 371/75/1 372/76/1
f 373/77/1 374/78/1 375/79/1 376/80/1
f 377/77/1 378/78/1 379/79/1 380/80/1
f 381/77/1 382/78/1 383/79/1 384/80/1
f 385/77/1 386/78/1 387/79/1 388/80/1
f 389/77/1 390/78/1 391/79/1 392/80/1
f 393/77/1 394/78/1 395/79/1 396/80/1
f 397/77/1 398/78/1 399/79/1 400/80/1
f 401/77/1 402/78/1 403/79/1 404/80/1
f 405/77/1 406/78/1 407/79/1 408/80/1
f 409/77/1 410/78/1 411/79/1 412/80/1
f 413/81/1 414/82/1 415/83/1 416/84/1
f 417/85/1 418/86/1 419/87/1 420/88/1
f 421/89/1 422/90/1 423/91/1 424/92/1
f 425/89/1 426/90/1 427/91/1 428/92/1
f 429/89/1 430/90/1 431/91/1 432/92/1
f 433/89/1 434/90/1 435/91/1 436/92/1
f 437/89/1 438/90/1 439/91/1 440/92/1
f 441/89/1 442/90/1 443/91/1 444/92/1
f 445/89/1 446/90/1 447/91/1 448/92/1
f 449/89/1 450/90/1 451/91/1 452/92/1
f 453/89/1 454/90/1 455/91/1 456/92/1
f 457/93/1 458/94/1 459/95/1 460/96/1
f 461/97/1 462/98/1 463/99/1 464/100/1

