# Tiled2Unity generated file. Do not modify by hand.
# Wavefront file for 'classroom_mesh_0003.obj'

# Vertices (Count = 12)
v -224 -32 0
v -240 -32 0
v -240 -16 0
v -224 -16 0
v -128 -32 0
v -144 -32 0
v -144 -16 0
v -128 -16 0
v -32 -32 0
v -48 -32 0
v -48 -16 0
v -32 -16 0

# Texture cooridinates (Count = 4)
vt 0.7038217 0.2863158
vt 0.7292994 0.2863158
vt 0.7292994 0.32
vt 0.7038217 0.32

# Normal
vn 0 0 -1

# Mesh description
g classroom_mesh_0003

# Faces
f 1/1/1 2/2/1 3/3/1 4/4/1
f 5/1/1 6/2/1 7/3/1 8/4/1
f 9/1/1 10/2/1 11/3/1 12/4/1

