# Tiled2Unity generated file. Do not modify by hand.
# Wavefront file for 'healthcenter_mesh_0004.obj'

# Vertices (Count = 52)
v -112 -48 0
v -128 -48 0
v -128 -32 0
v -112 -32 0
v -80 -48 0
v -96 -48 0
v -96 -32 0
v -80 -32 0
v -32 -48 0
v -48 -48 0
v -48 -32 0
v -32 -32 0
v -16 -48 0
v -32 -48 0
v -32 -32 0
v -16 -32 0
v -112 -64 0
v -128 -64 0
v -128 -48 0
v -112 -48 0
v -96 -64 0
v -112 -64 0
v -112 -48 0
v -96 -48 0
v -32 -64 0
v -48 -64 0
v -48 -48 0
v -32 -48 0
v -16 -64 0
v -32 -64 0
v -32 -48 0
v -16 -48 0
v -112 -80 0
v -128 -80 0
v -128 -64 0
v -112 -64 0
v -112 -96 0
v -128 -96 0
v -128 -80 0
v -112 -80 0
v -16 -96 0
v -32 -96 0
v -32 -80 0
v -16 -80 0
v -112 -112 0
v -128 -112 0
v -128 -96 0
v -112 -96 0
v -16 -112 0
v -32 -112 0
v -32 -96 0
v -16 -96 0

# Texture cooridinates (Count = 52)
vt 0.1855895 0.947541
vt 0.220524 0.947541
vt 0.220524 1
vt 0.1855895 1
vt 0.7423581 0
vt 0.7772925 0
vt 0.7772925 0.052459
vt 0.7423581 0.052459
vt 0.4454148 0.7245902
vt 0.4803493 0.7245902
vt 0.4803493 0.7770492
vt 0.4454148 0.7770492
vt 0.4825327 0.7245902
vt 0.5174673 0.7245902
vt 0.5174673 0.7770492
vt 0.4825327 0.7770492
vt 0.1855895 0.8360656
vt 0.220524 0.8360656
vt 0.220524 0.8885246
vt 0.1855895 0.8885246
vt 0.0742358 0.6131147
vt 0.1091703 0.6131147
vt 0.1091703 0.6655738
vt 0.0742358 0.6655738
vt 0.4454148 0.6688524
vt 0.4803493 0.6688524
vt 0.4803493 0.7213115
vt 0.4454148 0.7213115
vt 0.4825327 0.6688524
vt 0.5174673 0.6688524
vt 0.5174673 0.7213115
vt 0.4825327 0.7213115
vt 0.1113537 0.6131147
vt 0.1462882 0.6131147
vt 0.1462882 0.6655738
vt 0.1113537 0.6655738
vt 0.4082969 0.2229508
vt 0.4432314 0.2229508
vt 0.4432314 0.2754098
vt 0.4082969 0.2754098
vt 0.9279476 0.1114754
vt 0.9628821 0.1114754
vt 0.9628821 0.1639344
vt 0.9279476 0.1639344
vt 0.4082969 0.1672131
vt 0.4432314 0.1672131
vt 0.4432314 0.2196721
vt 0.4082969 0.2196721
vt 0.9279476 0.05573773
vt 0.9628821 0.05573773
vt 0.9628821 0.1081967
vt 0.9279476 0.1081967

# Normal
vn 0 0 -1

# Mesh description
g healthcenter_mesh_0004

# Faces
f 1/1/1 2/2/1 3/3/1 4/4/1
f 5/5/1 6/6/1 7/7/1 8/8/1
f 9/9/1 10/10/1 11/11/1 12/12/1
f 13/13/1 14/14/1 15/15/1 16/16/1
f 17/17/1 18/18/1 19/19/1 20/20/1
f 21/21/1 22/22/1 23/23/1 24/24/1
f 25/25/1 26/26/1 27/27/1 28/28/1
f 29/29/1 30/30/1 31/31/1 32/32/1
f 33/33/1 34/34/1 35/35/1 36/36/1
f 37/37/1 38/38/1 39/39/1 40/40/1
f 41/41/1 42/42/1 43/43/1 44/44/1
f 45/45/1 46/46/1 47/47/1 48/48/1
f 49/49/1 50/50/1 51/51/1 52/52/1

