# Tiled2Unity generated file. Do not modify by hand.
# Wavefront file for 'healthcenter_mesh_0003.obj'

# Vertices (Count = 8)
v -64 -32 0
v -80 -32 0
v -80 -16 0
v -64 -16 0
v -64 -48 0
v -80 -48 0
v -80 -32 0
v -64 -32 0

# Texture cooridinates (Count = 8)
vt 0.4917355 0.8726236
vt 0.5082645 0.8726236
vt 0.5082645 0.9030418
vt 0.4917355 0.9030418
vt 0.4917355 0.8403042
vt 0.5082645 0.8403042
vt 0.5082645 0.8707224
vt 0.4917355 0.8707224

# Normal
vn 0 0 -1

# Mesh description
g healthcenter_mesh_0003

# Faces
f 1/1/1 2/2/1 3/3/1 4/4/1
f 5/5/1 6/6/1 7/7/1 8/8/1

