# Tiled2Unity generated file. Do not modify by hand.
# Wavefront file for 'dininghall_mesh_0004.obj'

# Vertices (Count = 24)
v -32 -64 0
v -48 -64 0
v -48 -48 0
v -32 -48 0
v -16 -64 0
v -32 -64 0
v -32 -48 0
v -16 -48 0
v -208 -128 0
v -224 -128 0
v -224 -112 0
v -208 -112 0
v -192 -128 0
v -208 -128 0
v -208 -112 0
v -192 -112 0
v -32 -128 0
v -48 -128 0
v -48 -112 0
v -32 -112 0
v -16 -128 0
v -32 -128 0
v -32 -112 0
v -16 -112 0

# Texture cooridinates (Count = 16)
vt 0.2977707 0.3221053
vt 0.3232484 0.3221053
vt 0.3232484 0.3557895
vt 0.2977707 0.3557895
vt 0.2707006 0.3221053
vt 0.2961783 0.3221053
vt 0.2961783 0.3557895
vt 0.2707006 0.3557895
vt 0.8933121 0.8589474
vt 0.9187898 0.8589474
vt 0.9187898 0.8926316
vt 0.8933121 0.8926316
vt 0.433121 0.5010526
vt 0.4585987 0.5010526
vt 0.4585987 0.5347369
vt 0.433121 0.5347369

# Normal
vn 0 0 -1

# Mesh description
g dininghall_mesh_0004

# Faces
f 1/1/1 2/2/1 3/3/1 4/4/1
f 5/5/1 6/6/1 7/7/1 8/8/1
f 9/9/1 10/10/1 11/11/1 12/12/1
f 13/13/1 14/14/1 15/15/1 16/16/1
f 17/13/1 18/14/1 19/15/1 20/16/1
f 21/9/1 22/10/1 23/11/1 24/12/1

